<svg width="40" height="40" viewBox="0 0 40 40" fill="none" xmlns="http://www.w3.org/2000/svg">
<path d="M23 16C23.621 16.4657 24.125 17.0697 24.4721 17.7639C24.8193 18.4582 25 19.2238 25 20C25 20.7762 24.8193 21.5418 24.4721 22.2361C24.125 22.9303 23.621 23.5343 23 24" stroke="white" stroke-width="1.5" stroke-linecap="round" stroke-linejoin="round"/>
<path d="M25.7012 13C26.7451 13.8437 27.5872 14.9101 28.1656 16.1213C28.7441 17.3325 29.0443 18.6578 29.0443 20C29.0443 21.3422 28.7441 22.6675 28.1656 23.8787C27.5872 25.0899 26.7451 26.1563 25.7012 27" stroke="white" stroke-width="1.5" stroke-linecap="round" stroke-linejoin="round"/>
<path d="M14 23.0002H12C11.7348 23.0002 11.4804 22.8949 11.2929 22.7073C11.1054 22.5198 11 22.2654 11 22.0002V18.0002C11 17.735 11.1054 17.4806 11.2929 17.2931C11.4804 17.1056 11.7348 17.0002 12 17.0002H14L17.5 12.5002C17.5874 12.3304 17.7326 12.1975 17.9095 12.1255C18.0863 12.0535 18.2831 12.0471 18.4643 12.1075C18.6454 12.1678 18.799 12.291 18.8972 12.4548C18.9955 12.6185 19.0319 12.812 19 13.0002V27.0002C19.0319 27.1885 18.9955 27.3819 18.8972 27.5457C18.799 27.7094 18.6454 27.8326 18.4643 27.893C18.2831 27.9534 18.0863 27.947 17.9095 27.8749C17.7326 27.8029 17.5874 27.67 17.5 27.5002L14 23.0002Z" stroke="white" stroke-width="1.5" stroke-linecap="round" stroke-linejoin="round"/>
</svg>
